# AST/ASF file generated using VICON BodyLanguage
# -----------------------------------------------
:version 1.10
:name VICON
:units
  mass 1.0
  length 0.45
  angle deg
:documentation
   .ast/.asf automatically generated from VICON data using
   VICON BodyBuilder and BodyLanguage model FoxedUp or BRILLIANT.MOD
:root
   order TX TY TZ RX RY RZ
   axis XYZ
   position 0 0 0  
   orientation 0 0 0 
:bonedata
  begin
     id 1 
     name lhipjoint
     direction 0.610259 -0.730986 0.305356 
     length 2.50941 
     axis 0 0 0  XYZ
  end
  begin
     id 2 
     name lfemur
     direction 0.34202 -0.939693 0  
     length 7.48822  
     axis 0 0 20  XYZ
    dof rx ry rz
    limits (-160.0 20.0)
           (-70.0 70.0)
           (-60.0 70.0)
  end
  begin
     id 3 
     name ltibia
     direction 0.34202 -0.939693 0   
     length 7.60141   
     axis 0 0 20   XYZ
    dof rx
    limits (-10.0 170.0)
  end
  begin
     id 4 
     name lfoot
     direction 0.0673488 -0.185039 0.980421   
     length 2.04049   
     axis -90 7.62852e-016 20   XYZ
    dof rx rz
    limits (-45.0 90.0)
           (-70.0 20.0)
  end
  begin
     id 5 
     name ltoes
     direction 1.5356e-011 -4.21729e-011 1   
     length 1.02897   
     axis -90 7.62852e-016 20   XYZ
    dof rx
    limits (-90.0 20.0)
  end
  begin
     id 6 
     name rhipjoint
     direction -0.57612 -0.754205 0.315056   
     length 2.43216  
     axis 0 0 0  XYZ 
  end
  begin
     id 7 
     name rfemur
     direction -0.34202 -0.939693 0   
     length 7.42799   
     axis 0 0 -20   XYZ
    dof rx ry rz
    limits (-160.0 20.0)
           (-70.0 70.0)
           (-70.0 60.0)
  end
  begin
     id 8 
     name rtibia
     direction -0.34202 -0.939693 0   
     length 7.69484   
     axis 0 0 -20   XYZ
    dof rx
    limits (-10.0 170.0)
 end
 begin
     id 9 
     name rfoot
     direction -0.111837 -0.30727 0.945028   
     length 2.15769  
     axis -90 -7.62852e-016 -20   XYZ
    dof rx rz
    limits (-45.0 90.0)
           (-20.0 70.0)
  end
  begin
     id 10 
     name rtoes
     direction -1.53539e-011 -4.21878e-011 1   
     length 1.07391   
     axis -90 -7.62852e-016 -20   XYZ
    dof rx
    limits (-90.0 20.0)
  end
  begin
     id 11 
     name lowerback
     direction 0.00552624 0.990109 -0.140195   
     length 2.12403   
     axis 0 0 0   XYZ
    dof rx ry rz
    limits (-20.0 45.0)
           (-30.0 30.0)
           (-30.0 30.0)
  end
  begin
     id 12 
     name upperback
     direction 0.00361898 0.999976 -0.00584723   
     length 2.13232   
     axis 0 0 0   XYZ
    dof rx ry rz
    limits (-20.0 45.0)
           (-30.0 30.0)
           (-30.0 30.0)
  end
  begin
     id 13 
     name thorax
     direction -0.000331275 0.998253 0.0590847   
     length 2.17688   
     axis 0 0 0   XYZ
    dof rx ry rz
    limits (-20.0 45.0)
           (-30.0 30.0)
           (-30.0 30.0)
  end
  begin
     id 14 
     name lowerneck
     direction -0.0561561 0.979832 0.19177   
     length 1.64159   
     axis 0 0 0   XYZ
    dof rx ry rz
    limits (-20.0 45.0)
           (-30.0 30.0)
           (-30.0 30.0)
  end
  begin
     id 15 
     name upperneck
     direction 0.0827153 0.979385 -0.184293   
     length 1.68939   
     axis 0 0 0   XYZ
    dof rx ry rz
    limits (-20.0 45.0)
           (-30.0 30.0)
           (-30.0 30.0)
  end
  begin
     id 16
     name head
     direction 0.0278583 0.995936 -0.0856488  
     length 1.70207  
     axis 0 0 0   XYZ
    dof rx ry rz
    limits (-20.0 45.0)
           (-30.0 30.0)
           (-30.0 30.0)
  end
  begin
     id 17 
     name lclavicle
     direction 0.950993 0.301131 -0.0702275  
     length 3.41652  
     axis 0 0 0   XYZ
    dof ry rz
    limits (-20.0 10.0)
           (0.0 20.0)
  end
  begin
     id 18 
     name lhumerus
     direction 1 -4.48981e-011 -3.9662e-029   
     length 5.32955   
     axis 180 -30 -90   XYZ
    dof rx ry rz
    limits (-60.0 90.0)
           (-90.0 90.0)
           (-90.0 90.0)
  end
  begin
     id 19
     name lradius
     direction 1 -4.48925e-011 -9.0549e-027   
     length 3.69232   
     axis 180 -30 -90   XYZ
    dof rx
    limits (-10.0 170.0)
  end
  begin
     id 20
     name lwrist
     direction 1 -4.49007e-011 -1.49005e-026   
     length 1.84616   
     axis 9.0955e-015 90 90   XYZ
    dof ry
    limits (-180.0 0.0)
 end
  begin
     id 21 
     name lhand
     direction 1 -4.49016e-011 -2.98023e-026   
     length 0.536598   
     axis 1.90115e-014 90 90   XYZ
    dof rx rz
    limits (-90.0 90.0)
           (-45.0 45.0)
  end
  begin
     id 22 
     name lfingers
     direction 1 -4.48924e-011 -5.9578e-026   
     length 0.432619   
     axis 3.80223e-014 90 90   XYZ
    dof rx
    limits (0.0 90.0)
  end
  begin
     id 23
     name lthumb
     direction 0.707107 -6.34947e-011 0.707107   
     length 0.621157   
     axis -90 45 -3.84942e-014   XYZ
    dof rx rz
    limits (-45.0 45.0)
           (-45.0 45.0)
  end
  begin
     id 24 
     name rclavicle
     direction -0.955495 0.276497 -0.102848   
     length 3.36357  
     axis 0 0 0   XYZ 
    dof ry rz
    limits (-10.0 20.0)
           (-20.0 0.0)
  end
  begin
     id 25 
     name rhumerus
     direction -1 -4.48961e-011 3.30983e-027  
     length 5.23431   
     axis 180 30 90   XYZ
    dof rx ry rz
    limits (-90.0 60.0)
           (-90.0 90.0)
           (-90.0 90.0)
  end
  begin
     id 26 
     name rradius
     direction -1 -4.48965e-011 -6.63263e-027   
     length 3.55301   
     axis 180 30 90   XYZ
    dof rx
    limits (-10.0 170.0)
  end
  begin
     id 27 
     name rwrist
     direction -1 -4.48942e-011 -1.48958e-026   
     length 1.77651   
     axis 9.0955e-015 -90 -90   XYZ
    dof ry
    limits (-180.0 0.0)
  end
  begin
     id 28
     name rhand
     direction -1 -4.48977e-011 -2.97966e-026   
     length 0.772522   
     axis 1.90115e-014 -90 -90   XYZ
    dof rx rz
    limits (-90.0 90.0)
           (-45.0 45.0)
  end
  begin
     id 29
     name rfingers
     direction -1 -4.49135e-011 -5.96389e-026   
     length 0.622827   
     axis 3.80223e-014 -90 -90   XYZ
    dof rx
    limits (0.0 90.0)
  end
  begin
     id 30
     name rthumb
     direction -0.707107 -6.34969e-011 0.707107   
     length 0.894259   
     axis -90 -45 3.84942e-014   XYZ
    dof rx rz
    limits (-45.0 45.0)
           (-45.0 45.0)
  end
:hierarchy
  begin
    root lhipjoint rhipjoint lowerback
    lhipjoint lfemur
    lfemur ltibia
    ltibia lfoot
    lfoot ltoes
    rhipjoint rfemur
    rfemur rtibia
    rtibia rfoot
    rfoot rtoes
    lowerback upperback
    upperback thorax
    thorax lowerneck lclavicle rclavicle
    lowerneck upperneck
    upperneck head
    lclavicle lhumerus
    lhumerus lradius
    lradius lwrist
    lwrist lhand lthumb
    lhand lfingers
    rclavicle rhumerus
    rhumerus rradius
    rradius rwrist
    rwrist rhand rthumb
    rhand rfingers
  end

#!OML:ASF F:\VICON\USERDATA\INSTALL\rory3\rory3.ASF
:FULLY-SPECIFIED
:DEGREES
33
root 11.8765 17.9009 -17.6595 -1.61399 1.83464 4.6201
lowerback 11.955 0.125474 -3.97624
upperback 1.98786 -0.389156 -0.999489
thorax -4.59911 -0.136819 1.25777
lowerneck -18.9737 -7.27441 -13.5825
upperneck 24.5327 -8.99899 10.3378
head 12.3955 -4.03944 4.69693
rclavicle -3.47873e-015 -8.44835e-015
rhumerus -35.9977 -11.5708 -81.2745
rradius 32.2886
rwrist 4.95136
rhand -14.6626 8.44469
rfingers 7.12502
rthumb 11.4901 -21.2204
lclavicle -3.47873e-015 -8.44835e-015
lhumerus -31.7465 -0.146009 82.616
lradius 37.5384
lwrist -4.18371
lhand -15.365 27.3307
lfingers 7.12502
lthumb 10.8127 57.0324
rfemur -24.9559 -4.97235 15.6963
rtibia 63.4868
rfoot -5.72316 -2.64842
rtoes 5.24954
lfemur -0.701149 1.12049 -29.2276
ltibia 13.7045
lfoot -10.1081 -9.48967
ltoes -5.99869
34
root 11.8695 17.8827 -17.5608 -1.63851 2.22777 4.6212
lowerback 12.165 -0.071097 -4.03923
upperback 1.9355 -0.667183 -0.947516
thorax -4.75478 -0.268825 1.39288
lowerneck -19.0722 -7.23531 -13.6301
upperneck 24.6146 -8.92257 10.3437
head 12.4394 -4.00693 4.72232
rclavicle 1.53561e-014 -9.93923e-016
rhumerus -36.0818 -11.6759 -81.1137
rradius 32.3743
rwrist 5.55249
rhand -14.2534 7.94582
rfingers 7.12502
rthumb 11.8847 -21.6969
lclavicle 1.53561e-014 -9.93923e-016
lhumerus -31.4567 -0.178866 82.6132
lradius 37.714
lwrist -4.16104
lhand -15.6124 26.0258
lfingers 7.12502
lthumb 10.5741 55.7397
rfemur -25.5538 -4.91238 15.7459
rtibia 62.0893
rfoot -6.6357 -3.03809
rtoes 4.64811
lfemur -0.633709 0.911423 -29.2007
ltibia 14.4198
lfoot -10.238 -9.52181
ltoes -5.49422
35
root 11.8678 17.8693 -17.4534 -1.62606 2.45293 4.59328
lowerback 12.2338 -0.22313 -4.01304
upperback 1.89248 -0.867683 -0.905646
thorax -4.82712 -0.36572 1.45484
lowerneck -19.2122 -7.18852 -13.595
upperneck 24.7029 -8.82012 10.229
head 12.4792 -3.96846 4.69039
rclavicle -1.46355e-014 5.96354e-015
rhumerus -36.1963 -11.6619 -81.0092
rradius 32.4145
rwrist 5.70288
rhand -14.267 7.9301
rfingers 7.12502
rthumb 11.8717 -21.7134
lclavicle -1.46355e-014 5.96354e-015
lhumerus -31.144 -0.351052 82.6273
lradius 37.8593
lwrist -3.92323
lhand -16.0134 25.1911
lfingers 7.12502
lthumb 10.1872 54.9245
rfemur -26.1256 -4.77624 15.8347
rtibia 60.54
rfoot -7.47372 -3.55847
rtoes 3.04469
lfemur -0.386321 0.707121 -29.1614
ltibia 14.7398
lfoot -9.76203 -9.26308
ltoes -4.86609
36
root 11.8678 17.8592 -17.3395 -1.53366 2.5185 4.64069
lowerback 12.0778 -0.307674 -4.06504
upperback 1.92517 -0.975983 -0.881701
thorax -4.69923 -0.42099 1.52423
lowerneck -19.4263 -7.18985 -13.5858
upperneck 24.7103 -8.78459 10.1916
head 12.5176 -3.94998 4.67743
rclavicle 1.3418e-015 5.76476e-015
rhumerus -36.1493 -11.619 -80.9247
rradius 32.513
rwrist 5.92167
rhand -14.0597 7.45742
rfingers 7.12502
rthumb 12.0715 -22.1744
lclavicle 1.3418e-015 5.76476e-015
lhumerus -30.6197 -0.583566 82.696
lradius 38.0558
lwrist -3.6713
lhand -16.1824 25.0125
lfingers 7.12502
lthumb 10.0242 54.7537
rfemur -26.7239 -4.49576 15.8282
rtibia 58.8386
rfoot -8.27388 -4.16636
rtoes 1.17055
lfemur -0.0968753 0.427351 -29.2422
ltibia 14.8791
lfoot -10.048 -8.66232
ltoes -5.88333
37
root 11.8687 17.85 -17.2257 -1.46646 2.58441 4.85971
lowerback 11.9664 -0.342059 -4.27874
upperback 1.90544 -1.04503 -0.908108
thorax -4.65104 -0.452516 1.6262
lowerneck -19.334 -7.21697 -13.6355
upperneck 24.6392 -8.82045 10.2106
head 12.4799 -3.97073 4.68582
rclavicle -1.78161e-014 1.09332e-014
rhumerus -36.2092 -11.5988 -80.7944
rradius 32.487
rwrist 5.69981
rhand -14.0179 7.62226
rfingers 7.12502
rthumb 12.1118 -22.0072
lclavicle -1.78161e-014 1.09332e-014
lhumerus -30.5949 -1.20697 82.8661
lradius 38.8489
lwrist -3.15063
lhand -16.1025 26.2691
lfingers 7.12502
lthumb 10.1013 56.0067
rfemur -27.2134 -4.2335 15.5722
rtibia 56.9852
rfoot -8.84478 -4.44232
rtoes 0.66866
lfemur 0.316496 0.262283 -29.5198
ltibia 14.8212
lfoot -10.4586 -8.54348
ltoes -5.85863
38
root 11.8683 17.84 -17.1135 -1.42451 2.75854 4.98375
lowerback 11.933 -0.448355 -4.37449
upperback 1.87439 -1.19833 -0.930728
thorax -4.65468 -0.526148 1.67982
lowerneck -19.2489 -7.16083 -13.5965
upperneck 24.5529 -8.75085 10.1899
head 12.4149 -3.94093 4.68262
rclavicle -3.80176e-015 4.77083e-015
rhumerus -36.3077 -11.5404 -80.7508
rradius 32.4574
rwrist 5.35405
rhand -14.3234 8.12731
rfingers 7.12502
rthumb 11.8173 -21.5193
lclavicle -3.80176e-015 4.77083e-015
lhumerus -30.8387 -1.8664 82.9023
lradius 39.8986
lwrist -2.55283
lhand -16.0062 27.2876
lfingers 7.12502
lthumb 10.1941 57.0206
rfemur -27.5772 -4.06024 15.423
rtibia 54.9668
rfoot -9.07849 -4.68693
rtoes 0.812958
lfemur 0.835051 0.255003 -29.6568
ltibia 14.5603
lfoot -10.2964 -8.81881
ltoes -3.50887
